<svg id="Layer_1" height="512" viewBox="0 0 128 128" width="512" xmlns="http://www.w3.org/2000/svg" data-name="Layer 1"><path d="m55.123 54.034a20.819 20.819 0 1 0 -20.823-20.818 20.841 20.841 0 0 0 20.823 20.818zm0-38.138a17.319 17.319 0 1 1 -17.323 17.32 17.338 17.338 0 0 1 17.323-17.316z"/><path d="m51.6 38.492a1.75 1.75 0 0 0 -3.5 0 7.032 7.032 0 0 0 5.276 6.8v1.378a1.75 1.75 0 0 0 3.5 0v-1.381a7.016 7.016 0 0 0 0-13.594v-6.795a3.514 3.514 0 0 1 1.777 3.043 1.75 1.75 0 1 0 3.5 0 7.033 7.033 0 0 0 -5.277-6.8v-1.378a1.75 1.75 0 0 0 -3.5 0v1.377a7.016 7.016 0 0 0 0 13.594v6.8a3.514 3.514 0 0 1 -1.776-3.044zm7.052 0a3.514 3.514 0 0 1 -1.776 3.043v-6.086a3.514 3.514 0 0 1 1.773 3.043zm-7.052-10.554a3.515 3.515 0 0 1 1.772-3.038v6.086a3.517 3.517 0 0 1 -1.772-3.048z"/><path d="m113.277 101.8a5.411 5.411 0 0 0 -7-3.108 66.516 66.516 0 0 1 -7.828 2.4 84.178 84.178 0 0 1 -2.164-8.522 1.741 1.741 0 0 0 .492-1.213v-7.326a1.749 1.749 0 0 0 -1.75-1.75h-.379c-.412-3.432-.718-6.994-.914-10.638h1.293a1.75 1.75 0 0 0 1.75-1.75v-7.32a1.749 1.749 0 0 0 -1.75-1.75h-1.545c.108-16.118 2.359-31.4 6.078-41.067a5.42 5.42 0 0 0 -3.108-7 5.413 5.413 0 0 0 -7 3.107c-4.233 11-6.693 27.331-6.8 44.957h-52.081a8.753 8.753 0 0 0 -8.743 8.743v.327a1.75 1.75 0 0 0 1.75 1.75h10.676c-.2 3.753-.52 7.426-.951 10.962a8.75 8.75 0 0 0 -6.419 8.419v.328a1.75 1.75 0 0 0 1.75 1.75h2.966c-.606 2.907-1.293 5.578-2.052 7.985a66.485 66.485 0 0 1 -7.826-2.4 5.413 5.413 0 1 0 -3.888 10.1c11.248 4.337 28.075 6.816 46.166 6.816s34.916-2.483 46.169-6.811a5.42 5.42 0 0 0 3.108-6.989zm-27.929-8.7a101.423 101.423 0 0 0 2.408 10.041 167.993 167.993 0 0 1 -23.756 1.635 167.993 167.993 0 0 1 -23.757-1.633 101.169 101.169 0 0 0 2.404-10.043zm5.9 9.482a95.62 95.62 0 0 1 -2.336-9.482h3.915a89.415 89.415 0 0 0 2.2 8.765c-1.227.257-2.489.495-3.783.719zm-.116-20.3h-3.873c-.391-3.439-.681-7-.865-10.638h3.839c.193 3.637.492 7.198.895 10.637zm-29.038 0v-10.639h3.819v10.638zm-17.834 0c.383-3.443.666-7 .847-10.638h13.483v10.637zm25.149-10.639h13.48c.181 3.632.465 7.193.848 10.638h-14.328zm23.313-54.519a1.913 1.913 0 1 1 3.571 1.376c-3.864 10.045-6.2 25.8-6.311 42.324h-3.828c.107-17.211 2.483-33.085 6.568-43.7zm-62.151 47.2h62.71v3.82h-8.727c-.024 0-.047-.006-.073 0-.011 0-.022 0-.034 0h-58.923a5.254 5.254 0 0 1 5.047-3.821zm11.029 7.319c-.184 3.639-.473 7.2-.863 10.638h-3.87c.4-3.443.7-7 .894-10.638zm-5.973 14.138h57.654v3.819h-62.701a5.252 5.252 0 0 1 5.047-3.819zm-.459 7.319h3.916a95.29 95.29 0 0 1 -2.33 9.482c-1.294-.224-2.559-.462-3.783-.717a88.893 88.893 0 0 0 2.197-8.765zm73.744 12.423c-10.868 4.183-27.238 6.577-44.912 6.577s-34.046-2.4-44.911-6.579a1.913 1.913 0 0 1 -1.1-2.472 1.917 1.917 0 0 1 2.475-1.1c10.29 3.96 26.565 6.323 43.536 6.323a156.234 156.234 0 0 0 33.833-3.45h.02a72.734 72.734 0 0 0 9.683-2.868 1.912 1.912 0 0 1 2.472 1.1 1.916 1.916 0 0 1 -1.096 2.471z"/></svg>