<svg height="512pt" viewBox="0 0 512 512" width="512pt" xmlns="http://www.w3.org/2000/svg"><path d="m246.976562 74.667969c-95.019531 0-172.308593 77.289062-172.308593 172.308593 0 7.933594 6.421875 14.355469 14.355469 14.355469h157.953124c7.933594 0 14.355469-6.421875 14.355469-14.355469v-157.953124c0-7.933594-6.421875-14.355469-14.355469-14.355469zm0 0"/><path d="m256 512c-141.164062 0-256-114.835938-256-256s114.835938-256 256-256 256 114.835938 256 256-114.835938 256-256 256zm0-469.332031c-117.632812 0-213.332031 95.699219-213.332031 213.332031s95.699219 213.332031 213.332031 213.332031 213.332031-95.699219 213.332031-213.332031-95.699219-213.332031-213.332031-213.332031zm0 0"/></svg>