<svg height="512pt" viewBox="0 0 512 512" width="512pt" xmlns="http://www.w3.org/2000/svg"><path d="m412.4375 241.769531h-142.230469v-142.207031c.023438-7.851562-6.355469-14.230469-14.207031-14.230469-94.101562 0-170.667969 76.566407-170.667969 170.667969s76.566407 170.667969 170.667969 170.667969 170.667969-76.566407 170.667969-170.667969c0-7.851562-6.378907-14.230469-14.230469-14.230469zm0 0"/><path d="m256 512c-141.164062 0-256-114.835938-256-256s114.835938-256 256-256 256 114.835938 256 256-114.835938 256-256 256zm0-469.332031c-117.632812 0-213.332031 95.699219-213.332031 213.332031s95.699219 213.332031 213.332031 213.332031 213.332031-95.699219 213.332031-213.332031-95.699219-213.332031-213.332031-213.332031zm0 0"/></svg>